# xmcd
#
# Track frame offsets:
#	150
#	24291
#	40124
#	60110
#	74793
#	84591
#	101360
#	119185
#	132094
#	140351
#	153452
#	166779
#	189113
#	206293
#	219594
#	234025
#	259318
#	281540
#	293098
#
# Disc length: 4150 seconds
#
# Revision: 1
# Processed by: cddbd v1.5.2PL0 Copyright (c) Steve Scherf et al.
# Submitted via: audiograbber 1.83.01
#
DISCID=04103413
DTITLE=Kims World Records - Kims World Records 001
DYEAR=2007
DGENRE=Country
TTITLE0=The Tune Sound  - Kimberly Glover
TTITLE1=What You Gotta Do  - Bill Echoff
TTITLE2=Roy´s Song  - Wayne Pulcini
TTITLE3=Calling To Me  - Del Sutton
TTITLE4=How You Spend Your Time  - William R Wagler
TTITLE5=Friday Night  - Tommy Shortt
TTITLE6=I´d Be There Top  - Sherry Blakenship
TTITLE7=Momma Please Don´t Cry  - Stephanie Runyon
TTITLE8=Catfish Crawl  - Billy Lynn Barr
TTITLE9=I´m Going Home  - J C Steadman
TTITLE10=How Many Days  - David Schelter
TTITLE11=You Got To Me - Steven S Clark
TTITLE12=All I Want To Give  - Greg Hettinger
TTITLE13=Raining In Alabama - Warren Silvers
TTITLE14=Shout Love From The Mountain  - Anna Laura
TTITLE15=The Walz Of St Augustine  - Harold Janson
TTITLE16=My Soul Restored  - Maureen Gee
TTITLE17=My Life  - Ared Allen
TTITLE18=Because  - Kimberly Glover
EXTD=
EXTT0=
EXTT1=
EXTT2=
EXTT3=
EXTT4=
EXTT5=
EXTT6=
EXTT7=
EXTT8=
EXTT9=
EXTT10=
EXTT11=
EXTT12=
EXTT13=
EXTT14=
EXTT15=
EXTT16=
EXTT17=
EXTT18=
PLAYORDER=
